<svg xmlns="http://www.w3.org/2000/svg" width="100%" style="color:rgb(30, 41, 59)" viewBox="0 0 1420 1240">
  <title>Modelo de Base de Datos - Scorely</title>
  <style>
    text { font-family: -apple-system, system-ui, "Segoe UI", Helvetica, Arial, sans-serif; }
    .title { font-size: 17px; font-weight: 700; }
    .col-label { font-size: 11px; letter-spacing: 2px; fill: #94a3b8; }
    .hdr { font-size: 13px; font-weight: 700; }
    .field { font-size: 12px; }
    .badge { font-size: 9.5px; font-weight: 700; }
    .pk { fill: #b91c1c; }
    .uq { fill: #6d28d9; }
    .fk { fill: #0e7490; }
    .link { fill: none; stroke: #94a3b8; stroke-width: 1.2; }
    .dot { fill: #0891b2; }
    .legend { font-size: 11px; fill: #94a3b8; }
  </style>

  <text class="title" x="710" y="24" text-anchor="middle">Modelo de Base de Datos - Scorely</text>

  <text class="col-label" x="40" y="44">USERS</text>
  <text class="col-label" x="360" y="44">COMPETICIONES + SCORING</text>
  <text class="col-label" x="700" y="44">EVENTOS</text>
  <text class="col-label" x="1040" y="44">PARTICIPANTES Y RESULTADOS</text>

  <!-- ============ LINES (relations) ============ -->
  <g>
    <!-- R1 CompetitionAdmin.user → User -->
    <path class="link" d="M40 352 L28 352 L28 270 L40 270"/>
    <circle class="dot" cx="40" cy="270" r="3.2"/>
    <!-- R2 CompetitionAdmin.competition → Competition -->
    <path class="link" d="M290 372 L325 372 L325 820 L360 820"/>
    <circle class="dot" cx="360" cy="820" r="3.2"/>
    <!-- R3 CompetitionAdmin.assigned_by → User -->
    <path class="link" d="M40 412 L16 412 L16 270 L40 270"/>
    <circle class="dot" cx="40" cy="270" r="3.2"/>
    <!-- R4 Competition.competition_type → CompetitionType -->
    <path class="link" d="M360 814 L348 814 L348 148 L360 148"/>
    <circle class="dot" cx="360" cy="148" r="3.2"/>
    <!-- R5 Competition.status → StatusCompetition -->
    <path class="link" d="M360 834 L336 834 L336 256 L360 256"/>
    <circle class="dot" cx="360" cy="256" r="3.2"/>
    <!-- R6 Competition.affiliation → Affiliation -->
    <path class="link" d="M360 854 L348 854 L348 464 L360 464"/>
    <circle class="dot" cx="360" cy="464" r="3.2"/>
    <!-- R7 Competition.location → Location -->
    <path class="link" d="M360 874 L336 874 L336 692 L360 692"/>
    <circle class="dot" cx="360" cy="692" r="3.2"/>
    <!-- R8 ScoringRule.competition → Competition -->
    <path class="link" d="M360 1062 L348 1062 L348 980 L360 980"/>
    <circle class="dot" cx="360" cy="980" r="3.2"/>
    <!-- R9 EnabledCompetitionCategory.competition → Competition -->
    <path class="link" d="M700 270 L665 270 L665 754 L630 754"/>
    <circle class="dot" cx="630" cy="754" r="3.2"/>
    <!-- R10 EnabledCompetitionCategory.competition_category → CompetitionCategory -->
    <path class="link" d="M700 290 L688 290 L688 188 L700 188"/>
    <circle class="dot" cx="700" cy="188" r="3.2"/>
    <!-- R11 CompetitionStage.competition → Competition -->
    <path class="link" d="M700 378 L653 378 L653 778 L630 778"/>
    <circle class="dot" cx="630" cy="778" r="3.2"/>
    <!-- R12 Event.competition_stage → CompetitionStage -->
    <path class="link" d="M700 546 L688 546 L688 464 L700 464"/>
    <circle class="dot" cx="700" cy="464" r="3.2"/>
    <!-- R15 Competitor.enabled_competition_category → ECC -->
    <path class="link" d="M1040 686 L1005 686 L1005 250 L970 250"/>
    <circle class="dot" cx="970" cy="250" r="3.2"/>
    <!-- R16 EventCompetitor.event → Event -->
    <path class="link" d="M1040 814 L993 814 L993 586 L970 586"/>
    <circle class="dot" cx="970" cy="586" r="3.2"/>
    <!-- R17 EventCompetitor.competitor → Competitor -->
    <path class="link" d="M1040 794 L1028 794 L1028 524 L1040 524"/>
    <circle class="dot" cx="1040" cy="524" r="3.2"/>
    <!-- R19 Competitor.athlete → Athlete -->
    <path class="link" d="M1040 606 L1028 606 L1028 248 L1040 248"/>
    <circle class="dot" cx="1040" cy="248" r="3.2"/>
    <!-- R20 Competitor.team → Team -->
    <path class="link" d="M1040 626 L1016 626 L1016 396 L1040 396"/>
    <circle class="dot" cx="1040" cy="396" r="3.2"/>
    <!-- R21 TeamMember.team → Team -->
    <path class="link" d="M1040 478 L1028 478 L1028 396 L1040 396"/>
    <circle class="dot" cx="1040" cy="396" r="3.2"/>
    <!-- R22 TeamMember.athlete → Athlete -->
    <path class="link" d="M1040 498 L1004 498 L1004 248 L1040 248"/>
    <circle class="dot" cx="1040" cy="248" r="3.2"/>
    <!-- R23 Team.competition → Competition (long) -->
    <path class="link" d="M1040 350 L1005 350 L1005 1156 L630 1156 L630 800"/>
    <circle class="dot" cx="630" cy="800" r="3.2"/>
    <!-- R24 Team.affiliation → Affiliation (long) -->
    <path class="link" d="M1040 370 L993 370 L993 1168 L630 1168 L630 378"/>
    <circle class="dot" cx="630" cy="378" r="3.2"/>
    <!-- R25 Athlete.affiliation → Affiliation (long) -->
    <path class="link" d="M1290 222 L1320 222 L1320 1180 L630 1180 L630 438"/>
    <circle class="dot" cx="630" cy="438" r="3.2"/>
    <!-- R26 Competitor.competition → Competition (long) -->
    <path class="link" d="M1040 666 L1320 666 L1320 1192 L630 1192 L630 840"/>
    <circle class="dot" cx="630" cy="840" r="3.2"/>
  </g>

  <!-- ============ COL A: USERS ============ -->
  <g>
    <!-- User -->
    <rect x="40" y="60" width="250" height="210" rx="8" fill="#ffffff" stroke="#64748b"/>
    <path d="M40 73 Q40 60 53 60 L277 60 Q290 60 290 73 L290 88 L40 88 Z" fill="#e0e7ff"/>
    <line x1="44" y1="88" x2="286" y2="88" stroke="#cbd5e1"/>
    <text class="hdr" x="52" y="79">User</text>
    <text class="field" x="52" y="102">id</text><text class="badge pk" x="278" y="102" text-anchor="end">PK</text>
    <text class="field" x="52" y="122">email</text><text class="badge uq" x="278" y="122" text-anchor="end">UQ</text>
    <text class="field" x="52" y="142">first_name</text>
    <text class="field" x="52" y="162">last_name</text>
    <text class="field" x="52" y="182">is_active</text>
    <text class="field" x="52" y="202">is_staff</text>
    <text class="field" x="52" y="222">created_at</text>
    <text class="field" x="52" y="242">updated_at</text>
    <!-- CompetitionAdmin -->
    <rect x="40" y="290" width="250" height="168" rx="8" fill="#ffffff" stroke="#64748b"/>
    <path d="M40 303 Q40 290 53 290 L277 290 Q290 290 290 303 L290 318 L40 318 Z" fill="#e0e7ff"/>
    <line x1="44" y1="318" x2="286" y2="318" stroke="#cbd5e1"/>
    <text class="hdr" x="52" y="309">CompetitionAdmin</text>
    <text class="field" x="52" y="332">id</text><text class="badge pk" x="278" y="332" text-anchor="end">PK</text>
    <text class="field" x="52" y="352">user</text><text class="badge fk" x="278" y="352" text-anchor="end">→ User</text>
    <text class="field" x="52" y="372">competition</text><text class="badge fk" x="278" y="372" text-anchor="end">→ Competition</text>
    <text class="field" x="52" y="392">is_active</text>
    <text class="field" x="52" y="412">assigned_by</text><text class="badge fk" x="278" y="412" text-anchor="end">? → User</text>
    <text class="field" x="52" y="432">assigned_at</text>
  </g>

  <!-- ============ COL B: COMPETITIONS + SCORING ============ -->
  <g>
    <!-- CompetitionType -->
    <rect x="360" y="60" width="270" height="88" rx="8" fill="#ffffff" stroke="#64748b"/>
    <path d="M360 73 Q360 60 373 60 L617 60 Q630 60 630 73 L630 88 L360 88 Z" fill="#fef3c7"/>
    <line x1="364" y1="88" x2="626" y2="88" stroke="#cbd5e1"/>
    <text class="hdr" x="372" y="79">CompetitionType</text>
    <text class="field" x="372" y="102">id</text><text class="badge pk" x="618" y="102" text-anchor="end">PK</text>
    <text class="field" x="372" y="122">code</text><text class="badge uq" x="618" y="122" text-anchor="end">UQ</text>
    <text class="field" x="372" y="142">name</text>
    <!-- StatusCompetition -->
    <rect x="360" y="168" width="270" height="88" rx="8" fill="#ffffff" stroke="#64748b"/>
    <path d="M360 181 Q360 168 373 168 L617 168 Q630 168 630 181 L630 196 L360 196 Z" fill="#fef3c7"/>
    <line x1="364" y1="196" x2="626" y2="196" stroke="#cbd5e1"/>
    <text class="hdr" x="372" y="187">StatusCompetition</text>
    <text class="field" x="372" y="210">id</text><text class="badge pk" x="618" y="210" text-anchor="end">PK</text>
    <text class="field" x="372" y="230">code</text><text class="badge uq" x="618" y="230" text-anchor="end">UQ</text>
    <text class="field" x="372" y="250">name</text>
    <!-- Affiliation -->
    <rect x="360" y="276" width="270" height="188" rx="8" fill="#ffffff" stroke="#64748b"/>
    <path d="M360 289 Q360 276 373 276 L617 276 Q630 276 630 289 L630 304 L360 304 Z" fill="#fef3c7"/>
    <line x1="364" y1="304" x2="626" y2="304" stroke="#cbd5e1"/>
    <text class="hdr" x="372" y="295">Affiliation</text>
    <text class="field" x="372" y="318">id</text><text class="badge pk" x="618" y="318" text-anchor="end">PK</text>
    <text class="field" x="372" y="338">name</text>
    <text class="field" x="372" y="358">description</text>
    <text class="field" x="372" y="378">logo</text>
    <text class="field" x="372" y="398">city</text>
    <text class="field" x="372" y="418">state</text>
    <text class="field" x="372" y="438">country</text>
    <!-- Location -->
    <rect x="360" y="484" width="270" height="208" rx="8" fill="#ffffff" stroke="#64748b"/>
    <path d="M360 497 Q360 484 373 484 L617 484 Q630 484 630 497 L630 512 L360 512 Z" fill="#fef3c7"/>
    <line x1="364" y1="512" x2="626" y2="512" stroke="#cbd5e1"/>
    <text class="hdr" x="372" y="503">Location</text>
    <text class="field" x="372" y="526">id</text><text class="badge pk" x="618" y="526" text-anchor="end">PK</text>
    <text class="field" x="372" y="546">name</text>
    <text class="field" x="372" y="566">address</text>
    <text class="field" x="372" y="586">city</text>
    <text class="field" x="372" y="606">state</text>
    <text class="field" x="372" y="626">country</text>
    <text class="field" x="372" y="646">latitude</text>
    <text class="field" x="372" y="666">longitude</text>
    <!-- Competition -->
    <rect x="360" y="712" width="270" height="268" rx="8" fill="#ffffff" stroke="#64748b"/>
    <path d="M360 725 Q360 712 373 712 L617 712 Q630 712 630 725 L630 740 L360 740 Z" fill="#fef3c7"/>
    <line x1="364" y1="740" x2="626" y2="740" stroke="#cbd5e1"/>
    <text class="hdr" x="372" y="731">Competition</text>
    <text class="field" x="372" y="754">id</text><text class="badge pk" x="618" y="754" text-anchor="end">PK</text>
    <text class="field" x="372" y="774">name</text>
    <text class="field" x="372" y="794">description</text>
    <text class="field" x="372" y="814">competition_type</text><text class="badge fk" x="618" y="814" text-anchor="end">→ Type</text>
    <text class="field" x="372" y="834">status</text><text class="badge fk" x="618" y="834" text-anchor="end">→ Status</text>
    <text class="field" x="372" y="854">affiliation</text><text class="badge fk" x="618" y="854" text-anchor="end">→ Affiliation</text>
    <text class="field" x="372" y="874">location</text><text class="badge fk" x="618" y="874" text-anchor="end">→ Location</text>
    <text class="field" x="372" y="894">year</text>
    <text class="field" x="372" y="914">start_date</text>
    <text class="field" x="372" y="934">end_date</text>
    <text class="field" x="372" y="954">slug</text><text class="badge uq" x="618" y="954" text-anchor="end">UQ</text>
    <!-- ScoringRule -->
    <rect x="360" y="1000" width="270" height="128" rx="8" fill="#ffffff" stroke="#64748b"/>
    <path d="M360 1013 Q360 1000 373 1000 L617 1000 Q630 1000 630 1013 L630 1028 L360 1028 Z" fill="#ffedd5"/>
    <line x1="364" y1="1028" x2="626" y2="1028" stroke="#cbd5e1"/>
    <text class="hdr" x="372" y="1019">ScoringRule</text>
    <text class="field" x="372" y="1042">id</text><text class="badge pk" x="618" y="1042" text-anchor="end">PK</text>
    <text class="field" x="372" y="1062">competition</text><text class="badge fk" x="618" y="1062" text-anchor="end">→ Competition</text>
    <text class="field" x="372" y="1082">position</text>
    <text class="field" x="372" y="1102">points</text>
  </g>

  <!-- ============ COL C: EVENTS ============ -->
  <g>
    <!-- CompetitionCategory -->
    <rect x="700" y="60" width="270" height="128" rx="8" fill="#ffffff" stroke="#64748b"/>
    <path d="M700 73 Q700 60 713 60 L957 60 Q970 60 970 73 L970 88 L700 88 Z" fill="#f3e8ff"/>
    <line x1="704" y1="88" x2="966" y2="88" stroke="#cbd5e1"/>
    <text class="hdr" x="712" y="79">CompetitionCategory</text>
    <text class="field" x="712" y="102">id</text><text class="badge pk" x="958" y="102" text-anchor="end">PK</text>
    <text class="field" x="712" y="122">name</text><text class="badge uq" x="958" y="122" text-anchor="end">UQ</text>
    <text class="field" x="712" y="142">min_members</text>
    <text class="field" x="712" y="162">max_members</text>
    <!-- EnabledCompetitionCategory -->
    <rect x="700" y="208" width="270" height="88" rx="8" fill="#ffffff" stroke="#64748b"/>
    <path d="M700 221 Q700 208 713 208 L957 208 Q970 208 970 221 L970 236 L700 236 Z" fill="#f3e8ff"/>
    <line x1="704" y1="236" x2="966" y2="236" stroke="#cbd5e1"/>
    <text class="hdr" x="712" y="227">EnabledCompetitionCategory</text>
    <text class="field" x="712" y="250">id</text><text class="badge pk" x="958" y="250" text-anchor="end">PK</text>
    <text class="field" x="712" y="270">competition</text><text class="badge fk" x="958" y="270" text-anchor="end">→ Competition</text>
    <text class="field" x="712" y="290">competition_category</text><text class="badge fk" x="958" y="290" text-anchor="end">→ Category</text>
    <!-- CompetitionStage -->
    <rect x="700" y="316" width="270" height="148" rx="8" fill="#ffffff" stroke="#64748b"/>
    <path d="M700 329 Q700 316 713 316 L957 316 Q970 316 970 329 L970 344 L700 344 Z" fill="#f3e8ff"/>
    <line x1="704" y1="344" x2="966" y2="344" stroke="#cbd5e1"/>
    <text class="hdr" x="712" y="335">CompetitionStage</text>
    <text class="field" x="712" y="358">id</text><text class="badge pk" x="958" y="358" text-anchor="end">PK</text>
    <text class="field" x="712" y="378">competition</text><text class="badge fk" x="958" y="378" text-anchor="end">→ Competition</text>
    <text class="field" x="712" y="398">stage_type</text>
    <text class="field" x="712" y="418">qualification_count</text>
    <text class="field" x="712" y="438">order</text>
    <!-- Event -->
    <rect x="700" y="484" width="270" height="208" rx="8" fill="#ffffff" stroke="#64748b"/>
    <path d="M700 497 Q700 484 713 484 L957 484 Q970 484 970 497 L970 512 L700 512 Z" fill="#f3e8ff"/>
    <line x1="704" y1="512" x2="966" y2="512" stroke="#cbd5e1"/>
    <text class="hdr" x="712" y="503">Event</text>
    <text class="field" x="712" y="526">id</text><text class="badge pk" x="958" y="526" text-anchor="end">PK</text>
    <text class="field" x="712" y="546">competition_stage</text><text class="badge fk" x="958" y="546" text-anchor="end">→ Stage</text>
    <text class="field" x="712" y="566">event_number</text>
    <text class="field" x="712" y="586">name</text>
    <text class="field" x="712" y="606">workout</text>
    <text class="field" x="712" y="626">description</text>
    <text class="field" x="712" y="646">is_ascending</text>
    <text class="field" x="712" y="666">is_active</text>
  </g>

  <!-- ============ COL D: PARTICIPANTS ============ -->
  <g>
    <!-- Athlete -->
    <rect x="1040" y="60" width="250" height="188" rx="8" fill="#ffffff" stroke="#64748b"/>
    <path d="M1040 73 Q1040 60 1053 60 L1277 60 Q1290 60 1290 73 L1290 88 L1040 88 Z" fill="#dcfce7"/>
    <line x1="1044" y1="88" x2="1286" y2="88" stroke="#cbd5e1"/>
    <text class="hdr" x="1052" y="79">Athlete</text>
    <text class="field" x="1052" y="102">id</text><text class="badge pk" x="1278" y="102" text-anchor="end">PK</text>
    <text class="field" x="1052" y="122">first_name</text>
    <text class="field" x="1052" y="142">last_name</text>
    <text class="field" x="1052" y="162">birth_date</text>
    <text class="field" x="1052" y="182">gender</text>
    <text class="field" x="1052" y="202">profile_photo</text>
    <text class="field" x="1052" y="222">affiliation</text><text class="badge fk" x="1278" y="222" text-anchor="end">? → Affiliation</text>
    <!-- Team -->
    <rect x="1040" y="268" width="250" height="128" rx="8" fill="#ffffff" stroke="#64748b"/>
    <path d="M1040 281 Q1040 268 1053 268 L1277 268 Q1290 268 1290 281 L1290 296 L1040 296 Z" fill="#dcfce7"/>
    <line x1="1044" y1="296" x2="1286" y2="296" stroke="#cbd5e1"/>
    <text class="hdr" x="1052" y="287">Team</text>
    <text class="field" x="1052" y="310">id</text><text class="badge pk" x="1278" y="310" text-anchor="end">PK</text>
    <text class="field" x="1052" y="330">name</text>
    <text class="field" x="1052" y="350">competition</text><text class="badge fk" x="1278" y="350" text-anchor="end">→ Competition</text>
    <text class="field" x="1052" y="370">affiliation</text><text class="badge fk" x="1278" y="370" text-anchor="end">? → Affiliation</text>
    <!-- TeamMember -->
    <rect x="1040" y="416" width="250" height="88" rx="8" fill="#ffffff" stroke="#64748b"/>
    <path d="M1040 429 Q1040 416 1053 416 L1277 416 Q1290 416 1290 429 L1290 444 L1040 444 Z" fill="#dcfce7"/>
    <line x1="1044" y1="444" x2="1286" y2="444" stroke="#cbd5e1"/>
    <text class="hdr" x="1052" y="435">TeamMember</text>
    <text class="field" x="1052" y="458">id</text><text class="badge pk" x="1278" y="458" text-anchor="end">PK</text>
    <text class="field" x="1052" y="478">team</text><text class="badge fk" x="1278" y="478" text-anchor="end">→ Team</text>
    <text class="field" x="1052" y="498">athlete</text><text class="badge fk" x="1278" y="498" text-anchor="end">→ Athlete</text>
    <!-- Competitor -->
    <rect x="1040" y="524" width="250" height="188" rx="8" fill="#ffffff" stroke="#64748b"/>
    <path d="M1040 537 Q1040 524 1053 524 L1277 524 Q1290 524 1290 537 L1290 552 L1040 552 Z" fill="#dcfce7"/>
    <line x1="1044" y1="552" x2="1286" y2="552" stroke="#cbd5e1"/>
    <text class="hdr" x="1052" y="543">Competitor</text>
    <text class="field" x="1052" y="566">id</text><text class="badge pk" x="1278" y="566" text-anchor="end">PK</text>
    <text class="field" x="1052" y="586">competitor_type</text>
    <text class="field" x="1052" y="606">athlete</text><text class="badge fk" x="1278" y="606" text-anchor="end">? → Athlete</text>
    <text class="field" x="1052" y="626">team</text><text class="badge fk" x="1278" y="626" text-anchor="end">? → Team</text>
    <text class="field" x="1052" y="646">registration_number</text>
    <text class="field" x="1052" y="666">competition</text><text class="badge fk" x="1278" y="666" text-anchor="end">→ Competition</text>
    <text class="field" x="1052" y="686">enabled_competition_category</text><text class="badge fk" x="1278" y="686" text-anchor="end">→ ECC</text>
    <!-- EventCompetitor -->
    <rect x="1040" y="732" width="250" height="168" rx="8" fill="#ffffff" stroke="#64748b"/>
    <path d="M1040 745 Q1040 732 1053 732 L1277 732 Q1290 732 1290 745 L1290 760 L1040 760 Z" fill="#dcfce7"/>
    <line x1="1044" y1="760" x2="1286" y2="760" stroke="#cbd5e1"/>
    <text class="hdr" x="1052" y="751">EventCompetitor</text>
    <text class="field" x="1052" y="774">id</text><text class="badge pk" x="1278" y="774" text-anchor="end">PK</text>
    <text class="field" x="1052" y="794">competitor</text><text class="badge fk" x="1278" y="794" text-anchor="end">→ Competitor</text>
    <text class="field" x="1052" y="814">event</text><text class="badge fk" x="1278" y="814" text-anchor="end">→ Event</text>
    <text class="field" x="1052" y="834">result</text>
    <text class="field" x="1052" y="854">event_rank</text>
    <text class="field" x="1052" y="874">score</text>
  </g>

  <text class="legend" x="40" y="1218">Los puntos ● marcan el final de cada ForeignKey. PK: clave primaria · UQ: única · ?: opcional/nulo.</text>
</svg>
